0
SECTION
2
HEADER
9
$INSUNITS
70
4
9
$ACADVER
1
AC1014
9
$HANDSEED
5
FFFF
0
ENDSEC
0
SECTION
2
TABLES
0
TABLE
2
VPORT
5
8
100
AcDbSymbolTable
0
ENDTAB
0
TABLE
2
LTYPE
5
5
100
AcDbSymbolTable
0
LTYPE
5
14
100
AcDbSymbolTableRecord
100
AcDbLinetypeTableRecord
2
BYBLOCK
70
0
0
LTYPE
5
15
100
AcDbSymbolTableRecord
100
AcDbLinetypeTableRecord
2
BYLAYER
70
0
0
LTYPE
5
16
100
AcDbSymbolTableRecord
100
AcDbLinetypeTableRecord
2
DASHED
70
0
3
Dashed __ __ __ __ __ __ __ __ __ __ __ __ __ _
72
65
73
2
40
0.75
49
0.5
74
0
49
-0.25
74
0
0
ENDTAB
0
TABLE
2
LAYER
5
2
100
AcDbSymbolTable
70
2
0
LAYER
5
50
100
AcDbSymbolTableRecord
100
AcDbLayerTableRecord
2
0
70
0
62
7
6
CONTINUOUS
0
ENDTAB
0
TABLE
2
STYLE
5
3
100
AcDbSymbolTable
70
1
0
STYLE
5
11
100
AcDbSymbolTableRecord
100
AcDbTextStyleTableRecord
2
STANDARD
70
0
0
ENDTAB
0
TABLE
2
VIEW
5
6
100
AcDbSymbolTable
70
0
0
ENDTAB
0
TABLE
2
UCS
5
7
100
AcDbSymbolTable
70
0
0
ENDTAB
0
TABLE
2
APPID
5
9
100
AcDbSymbolTable
70
2
0
APPID
5
12
100
AcDbSymbolTableRecord
100
AcDbRegAppTableRecord
2
ACAD
70
0
0
ENDTAB
0
TABLE
2
DIMSTYLE
5
A
100
AcDbSymbolTable
70
1
0
ENDTAB
0
TABLE
2
BLOCK_RECORD
5
1
100
AcDbSymbolTable
70
1
0
BLOCK_RECORD
5
1F
100
AcDbSymbolTableRecord
100
AcDbBlockTableRecord
2
*MODEL_SPACE
0
BLOCK_RECORD
5
1B
100
AcDbSymbolTableRecord
100
AcDbBlockTableRecord
2
*PAPER_SPACE
0
ENDTAB
0
ENDSEC
0
SECTION
2
BLOCKS
0
BLOCK
5
20
100
AcDbEntity
100
AcDbBlockBegin
2
*MODEL_SPACE
0
ENDBLK
5
21
100
AcDbEntity
100
AcDbBlockEnd
0
BLOCK
5
1C
100
AcDbEntity
100
AcDbBlockBegin
2
*PAPER_SPACE
0
ENDBLK
5
1D
100
AcDbEntity
100
AcDbBlockEnd
0
ENDSEC
0
SECTION
2
ENTITIES
0
POINT
5
100
100
AcDbEntity
8
0
100
AcDbPoint
10
0
20
0
30
0
0
POINT
5
101
100
AcDbEntity
8
0
100
AcDbPoint
10
1.5000000000000002
20
0
30
0
0
SPLINE
5
102
100
AcDbEntity
8
0
100
AcDbSpline
70
6
71
5
72
461
73
455
74
0
42
0.000000001
43
0.0000000001
44
0.0000000001
40
0
40
0
40
0
40
0
40
0
40
0
40
0.0022222222222222222
40
0.0044444444444444444
40
0.0066666666666666662
40
0.0088888888888888889
40
0.011111111111111112
40
0.013333333333333334
40
0.015555555555555557
40
0.017777777777777778
40
0.02
40
0.022222222222222223
40
0.024444444444444446
40
0.026666666666666668
40
0.028888888888888891
40
0.031111111111111114
40
0.033333333333333333
40
0.035555555555555556
40
0.037777777777777778
40
0.040000000000000001
40
0.042222222222222223
40
0.044444444444444446
40
0.046666666666666669
40
0.048888888888888891
40
0.051111111111111114
40
0.053333333333333337
40
0.055555555555555559
40
0.057777777777777782
40
0.060000000000000005
40
0.062222222222222227
40
0.064444444444444443
40
0.066666666666666666
40
0.068888888888888888
40
0.071111111111111111
40
0.073333333333333334
40
0.075555555555555556
40
0.077777777777777779
40
0.080000000000000002
40
0.082222222222222224
40
0.084444444444444447
40
0.08666666666666667
40
0.088888888888888892
40
0.091111111111111115
40
0.093333333333333338
40
0.09555555555555556
40
0.097777777777777783
40
0.10000000000000001
40
0.10222222222222223
40
0.10444444444444445
40
0.10666666666666667
40
0.1088888888888889
40
0.11111111111111112
40
0.11333333333333334
40
0.11555555555555556
40
0.11777777777777779
40
0.12000000000000001
40
0.12222222222222223
40
0.12444444444444445
40
0.12666666666666668
40
0.12888888888888889
40
0.13111111111111109
40
0.1333333333333333
40
0.13555555555555551
40
0.13777777777777772
40
0.13999999999999993
40
0.14222222222222214
40
0.14444444444444435
40
0.14666666666666656
40
0.14888888888888877
40
0.15111111111111097
40
0.15333333333333318
40
0.15555555555555539
40
0.1577777777777776
40
0.15999999999999981
40
0.16222222222222202
40
0.16444444444444423
40
0.16666666666666644
40
0.16888888888888864
40
0.17111111111111085
40
0.17333333333333306
40
0.17555555555555527
40
0.17777777777777748
40
0.17999999999999969
40
0.1822222222222219
40
0.18444444444444411
40
0.18666666666666631
40
0.18888888888888852
40
0.19111111111111073
40
0.19333333333333294
40
0.19555555555555515
40
0.19777777777777736
40
0.19999999999999957
40
0.20222222222222178
40
0.20444444444444398
40
0.20666666666666619
40
0.2088888888888884
40
0.21111111111111061
40
0.21333333333333282
40
0.21555555555555503
40
0.21777777777777724
40
0.21999999999999945
40
0.22222222222222165
40
0.22444444444444386
40
0.22666666666666607
40
0.22888888888888828
40
0.23111111111111049
40
0.2333333333333327
40
0.23555555555555491
40
0.23777777777777712
40
0.23999999999999932
40
0.24222222222222153
40
0.24444444444444374
40
0.24666666666666595
40
0.24888888888888816
40
0.2511111111111104
40
0.25333333333333263
40
0.25555555555555487
40
0.25777777777777711
40
0.25999999999999934
40
0.26222222222222158
40
0.26444444444444382
40
0.26666666666666605
40
0.26888888888888829
40
0.27111111111111053
40
0.27333333333333276
40
0.275555555555555
40
0.27777777777777724
40
0.27999999999999947
40
0.28222222222222171
40
0.28444444444444394
40
0.28666666666666618
40
0.28888888888888842
40
0.29111111111111065
40
0.29333333333333289
40
0.29555555555555513
40
0.29777777777777736
40
0.2999999999999996
40
0.30222222222222184
40
0.30444444444444407
40
0.30666666666666631
40
0.30888888888888855
40
0.31111111111111078
40
0.31333333333333302
40
0.31555555555555526
40
0.31777777777777749
40
0.31999999999999973
40
0.32222222222222197
40
0.3244444444444442
40
0.32666666666666644
40
0.32888888888888868
40
0.33111111111111091
40
0.33333333333333315
40
0.33555555555555538
40
0.33777777777777762
40
0.33999999999999986
40
0.34222222222222209
40
0.34444444444444433
40
0.34666666666666657
40
0.3488888888888888
40
0.35111111111111104
40
0.35333333333333328
40
0.35555555555555551
40
0.35777777777777775
40
0.35999999999999999
40
0.36222222222222222
40
0.36444444444444446
40
0.3666666666666667
40
0.36888888888888893
40
0.37111111111111117
40
0.37333333333333341
40
0.37555555555555564
40
0.37777777777777788
40
0.38000000000000012
40
0.38222222222222235
40
0.38444444444444459
40
0.38666666666666683
40
0.38888888888888906
40
0.3911111111111113
40
0.39333333333333353
40
0.39555555555555577
40
0.39777777777777801
40
0.40000000000000024
40
0.40222222222222248
40
0.40444444444444472
40
0.40666666666666695
40
0.40888888888888919
40
0.41111111111111143
40
0.41333333333333366
40
0.4155555555555559
40
0.41777777777777814
40
0.42000000000000037
40
0.42222222222222261
40
0.42444444444444485
40
0.42666666666666708
40
0.42888888888888932
40
0.43111111111111156
40
0.43333333333333379
40
0.43555555555555603
40
0.43777777777777827
40
0.4400000000000005
40
0.44222222222222274
40
0.44444444444444497
40
0.44666666666666721
40
0.44888888888888945
40
0.45111111111111168
40
0.45333333333333392
40
0.45555555555555616
40
0.45777777777777839
40
0.46000000000000063
40
0.46222222222222287
40
0.4644444444444451
40
0.46666666666666734
40
0.46888888888888958
40
0.47111111111111181
40
0.47333333333333405
40
0.47555555555555629
40
0.47777777777777852
40
0.48000000000000076
40
0.482222222222223
40
0.48444444444444523
40
0.48666666666666747
40
0.48888888888888971
40
0.49111111111111194
40
0.49333333333333418
40
0.49555555555555642
40
0.49777777777777865
40
0.50000000000000089
40
0.50222222222222312
40
0.50444444444444536
40
0.5066666666666676
40
0.50888888888888983
40
0.51111111111111207
40
0.51333333333333431
40
0.51555555555555654
40
0.51777777777777878
40
0.52000000000000102
40
0.52222222222222325
40
0.52444444444444549
40
0.52666666666666773
40
0.52888888888888996
40
0.5311111111111122
40
0.53333333333333444
40
0.53555555555555667
40
0.53777777777777891
40
0.54000000000000115
40
0.54222222222222338
40
0.54444444444444562
40
0.54666666666666786
40
0.54888888888889009
40
0.55111111111111233
40
0.55333333333333456
40
0.5555555555555568
40
0.55777777777777904
40
0.56000000000000127
40
0.56222222222222351
40
0.56444444444444575
40
0.56666666666666798
40
0.56888888888889022
40
0.57111111111111246
40
0.57333333333333469
40
0.57555555555555693
40
0.57777777777777917
40
0.5800000000000014
40
0.58222222222222364
40
0.58444444444444588
40
0.58666666666666811
40
0.58888888888889035
40
0.59111111111111259
40
0.59333333333333482
40
0.59555555555555706
40
0.5977777777777793
40
0.60000000000000153
40
0.60222222222222377
40
0.60444444444444601
40
0.60666666666666824
40
0.60888888888889048
40
0.61111111111111271
40
0.61333333333333495
40
0.61555555555555719
40
0.61777777777777942
40
0.62000000000000166
40
0.6222222222222239
40
0.62444444444444613
40
0.62666666666666837
40
0.62888888888889061
40
0.63111111111111284
40
0.63333333333333508
40
0.63555555555555732
40
0.63777777777777955
40
0.64000000000000179
40
0.64222222222222403
40
0.64444444444444626
40
0.6466666666666685
40
0.64888888888889074
40
0.65111111111111297
40
0.65333333333333521
40
0.65555555555555745
40
0.65777777777777968
40
0.66000000000000192
40
0.66222222222222415
40
0.66444444444444639
40
0.66666666666666863
40
0.66888888888889086
40
0.6711111111111131
40
0.67333333333333534
40
0.67555555555555757
40
0.67777777777777981
40
0.68000000000000205
40
0.68222222222222428
40
0.68444444444444652
40
0.68666666666666876
40
0.68888888888889099
40
0.69111111111111323
40
0.69333333333333547
40
0.6955555555555577
40
0.69777777777777994
40
0.70000000000000218
40
0.70222222222222441
40
0.70444444444444665
40
0.70666666666666889
40
0.70888888888889112
40
0.71111111111111336
40
0.7133333333333356
40
0.71555555555555783
40
0.71777777777778007
40
0.7200000000000023
40
0.72222222222222454
40
0.72444444444444678
40
0.72666666666666901
40
0.72888888888889125
40
0.73111111111111349
40
0.73333333333333572
40
0.73555555555555796
40
0.7377777777777802
40
0.74000000000000243
40
0.74222222222222467
40
0.74444444444444691
40
0.74666666666666914
40
0.74888888888889138
40
0.75111111111111362
40
0.75333333333333585
40
0.75555555555555809
40
0.75777777777778033
40
0.76000000000000256
40
0.7622222222222248
40
0.76444444444444704
40
0.76666666666666927
40
0.76888888888889151
40
0.77111111111111375
40
0.77333333333333598
40
0.77555555555555822
40
0.77777777777778045
40
0.78000000000000269
40
0.78222222222222493
40
0.78444444444444716
40
0.7866666666666694
40
0.78888888888889164
40
0.79111111111111387
40
0.79333333333333611
40
0.79555555555555835
40
0.79777777777778058
40
0.80000000000000282
40
0.80222222222222506
40
0.80444444444444729
40
0.80666666666666953
40
0.80888888888889177
40
0.811111111111114
40
0.81333333333333624
40
0.81555555555555848
40
0.81777777777778071
40
0.82000000000000295
40
0.82222222222222519
40
0.82444444444444742
40
0.82666666666666966
40
0.82888888888889189
40
0.83111111111111413
40
0.83333333333333637
40
0.8355555555555586
40
0.83777777777778084
40
0.84000000000000308
40
0.84222222222222531
40
0.84444444444444755
40
0.84666666666666979
40
0.84888888888889202
40
0.85111111111111426
40
0.8533333333333365
40
0.85555555555555873
40
0.85777777777778097
40
0.86000000000000321
40
0.86222222222222544
40
0.86444444444444768
40
0.86666666666666992
40
0.86888888888889215
40
0.87111111111111439
40
0.87333333333333663
40
0.87555555555555886
40
0.8777777777777811
40
0.88000000000000334
40
0.88222222222222557
40
0.88444444444444781
40
0.88666666666667004
40
0.88888888888889228
40
0.89111111111111452
40
0.89333333333333675
40
0.89555555555555899
40
0.89777777777778123
40
0.90000000000000346
40
0.9022222222222257
40
0.90444444444444794
40
0.90666666666667017
40
0.90888888888889241
40
0.91111111111111465
40
0.91333333333333688
40
0.91555555555555912
40
0.91777777777778136
40
0.92000000000000359
40
0.92222222222222583
40
0.92444444444444807
40
0.9266666666666703
40
0.92888888888889254
40
0.93111111111111478
40
0.93333333333333701
40
0.93555555555555925
40
0.93777777777778148
40
0.94000000000000372
40
0.94222222222222596
40
0.94444444444444819
40
0.94666666666667043
40
0.94888888888889267
40
0.9511111111111149
40
0.95333333333333714
40
0.95555555555555938
40
0.95777777777778161
40
0.96000000000000385
40
0.96222222222222609
40
0.96444444444444832
40
0.96666666666667056
40
0.9688888888888928
40
0.97111111111111503
40
0.97333333333333727
40
0.97555555555555951
40
0.97777777777778174
40
0.98000000000000398
40
0.98222222222222622
40
0.98444444444444845
40
0.98666666666667069
40
0.98888888888889293
40
0.99111111111111516
40
0.9933333333333374
40
0.99555555555555963
40
0.99777777777778187
40
1
40
1
40
1
40
1
40
1
40
1
41
1
41
1
41
1
41
1
41
1
41
1
41
1
41
1
41
1
41
1
41
1
41
1
41
1
41
1
41
1
41
1
41
1
41
1
41
1
41
1
41
1
41
1
41
1
41
1
41
1
41
1
41
1
41
1
41
1
41
1
41
1
41
1
41
1
41
1
41
1
41
1
41
1
41
1
41
1
41
1
41
1
41
1
41
1
41
1
41
1
41
1
41
1
41
1
41
1
41
1
41
1
41
1
41
1
41
1
41
1
41
1
41
1
41
1
41
1
41
1
41
1
41
1
41
1
41
1
41
1
41
1
41
1
41
1
41
1
41
1
41
1
41
1
41
1
41
1
41
1
41
1
41
1
41
1
41
1
41
1
41
1
41
1
41
1
41
1
41
1
41
1
41
1
41
1
41
1
41
1
41
1
41
1
41
1
41
1
41
1
41
1
41
1
41
1
41
1
41
1
41
1
41
1
41
1
41
1
41
1
41
1
41
1
41
1
41
1
41
1
41
1
41
1
41
1
41
1
41
1
41
1
41
1
41
1
41
1
41
1
41
1
41
1
41
1
41
1
41
1
41
1
41
1
41
1
41
1
41
1
41
1
41
1
41
1
41
1
41
1
41
1
41
1
41
1
41
1
41
1
41
1
41
1
41
1
41
1
41
1
41
1
41
1
41
1
41
1
41
1
41
1
41
1
41
1
41
1
41
1
41
1
41
1
41
1
41
1
41
1
41
1
41
1
41
1
41
1
41
1
41
1
41
1
41
1
41
1
41
1
41
1
41
1
41
1
41
1
41
1
41
1
41
1
41
1
41
1
41
1
41
1
41
1
41
1
41
1
41
1
41
1
41
1
41
1
41
1
41
1
41
1
41
1
41
1
41
1
41
1
41
1
41
1
41
1
41
1
41
1
41
1
41
1
41
1
41
1
41
1
41
1
41
1
41
1
41
1
41
1
41
1
41
1
41
1
41
1
41
1
41
1
41
1
41
1
41
1
41
1
41
1
41
1
41
1
41
1
41
1
41
1
41
1
41
1
41
1
41
1
41
1
41
1
41
1
41
1
41
1
41
1
41
1
41
1
41
1
41
1
41
1
41
1
41
1
41
1
41
1
41
1
41
1
41
1
41
1
41
1
41
1
41
1
41
1
41
1
41
1
41
1
41
1
41
1
41
1
41
1
41
1
41
1
41
1
41
1
41
1
41
1
41
1
41
1
41
1
41
1
41
1
41
1
41
1
41
1
41
1
41
1
41
1
41
1
41
1
41
1
41
1
41
1
41
1
41
1
41
1
41
1
41
1
41
1
41
1
41
1
41
1
41
1
41
1
41
1
41
1
41
1
41
1
41
1
41
1
41
1
41
1
41
1
41
1
41
1
41
1
41
1
41
1
41
1
41
1
41
1
41
1
41
1
41
1
41
1
41
1
41
1
41
1
41
1
41
1
41
1
41
1
41
1
41
1
41
1
41
1
41
1
41
1
41
1
41
1
41
1
41
1
41
1
41
1
41
1
41
1
41
1
41
1
41
1
41
1
41
1
41
1
41
1
41
1
41
1
41
1
41
1
41
1
41
1
41
1
41
1
41
1
41
1
41
1
41
1
41
1
41
1
41
1
41
1
41
1
41
1
41
1
41
1
41
1
41
1
41
1
41
1
41
1
41
1
41
1
41
1
41
1
41
1
41
1
41
1
41
1
41
1
41
1
41
1
41
1
41
1
41
1
41
1
41
1
41
1
41
1
41
1
41
1
41
1
41
1
41
1
41
1
41
1
41
1
41
1
41
1
41
1
41
1
41
1
41
1
41
1
41
1
41
1
41
1
41
1
41
1
41
1
41
1
41
1
41
1
41
1
41
1
41
1
41
1
41
1
41
1
41
1
41
1
41
1
41
1
41
1
41
1
41
1
41
1
41
1
41
1
41
1
41
1
41
1
41
1
41
1
41
1
41
1
41
1
41
1
41
1
41
1
41
1
41
1
41
1
41
1
41
1
41
1
41
1
41
1
41
1
41
1
41
1
41
1
41
1
41
1
41
1
41
1
41
1
41
1
41
1
10
36
20
0
30
0
10
35.99999999210015
20
0.10980857385741813
30
0
10
36.006657068610465
20
0.32942571893317008
30
0
10
36.036613959945633
20
0.65821791239308403
30
0
10
36.11601264557703
20
1.0928063912543147
30
0
10
36.276992544359238
20
1.6241977449797638
30
0
10
36.4924800089589
20
2.1398890524945906
30
0
10
36.751676548710236
20
2.6385021083821241
30
0
10
37.039822219772887
20
3.1219676373705632
30
0
10
37.337829037209971
20
3.596337831140064
30
0
10
37.624733185680249
20
4.0700038216413867
30
0
10
37.880125675211971
20
4.5519325422193866
30
0
10
38.086593454469117
20
5.0498950986751208
30
0
10
38.232150520355681
20
5.5687017584087251
30
0
10
38.312689085280574
20
6.108425611398653
30
0
10
38.329675223265689
20
6.6651866273195477
30
0
10
38.287826138377326
20
7.2319454627740889
30
0
10
38.192794373857744
20
7.7992935944114095
30
0
10
38.048849081030006
20
8.3562448453777431
30
0
10
37.85655866172975
20
8.8910264184715775
30
0
10
37.614586043040468
20
9.3927440978860659
30
0
10
37.321484998695219
20
9.853048459149985
30
0
10
36.977494353221957
20
10.267798609770736
30
0
10
36.586337033128288
20
10.638732111766815
30
0
10
36.157006290025947
20
10.975118515147116
30
0
10
35.702248946908618
20
11.291139606122663
30
0
10
35.23706236576502
20
11.603288169020827
30
0
10
34.777184966436792
20
11.927756631356557
30
0
10
34.337592845906791
20
12.277837718288962
30
0
10
33.930984593143187
20
12.661298631026824
30
0
10
33.567785694760445
20
13.081272445069569
30
0
10
33.256163885855528
20
13.537174955173008
30
0
10
33.002040338268912
20
14.025612011717092
30
0
10
32.809102649104361
20
14.541290737922941
30
0
10
32.678816710901685
20
15.077929094919757
30
0
10
32.60974283091393
20
15.628855676016521
30
0
10
32.596849874058918
20
16.18760977550243
30
0
10
32.630833495053167
20
16.748540198311272
30
0
10
32.697424517679991
20
17.307407339206719
30
0
10
32.776723551909143
20
17.861976367504859
30
0
10
32.846166218606228
20
18.411386211800039
30
0
10
32.883460797325682
20
18.955527489251132
30
0
10
32.869538880626628
20
19.494416932216104
30
0
10
32.791494197811332
20
20.027573791965466
30
0
10
32.645544369811518
20
20.553394051781645
30
0
10
32.434606872399492
20
21.068929433611537
30
0
10
32.165854244825745
20
21.569667837016489
30
0
10
31.848277133498133
20
22.049313244689117
30
0
10
31.490244082910333
20
22.499565704945923
30
0
10
31.097062781991198
20
22.909901422234466
30
0
10
30.67194283061724
20
23.269824198640364
30
0
10
30.216959052232223
20
23.571118222147263
30
0
10
29.734013876610558
20
23.810097737915147
30
0
10
29.225801636209216
20
23.989864338463079
30
0
10
28.696767809533917
20
24.122544064065728
30
0
10
28.152788946714267
20
24.226277221091856
30
0
10
27.600857599940074
20
24.322230694418053
30
0
10
27.048765477557769
20
24.431598394703066
30
0
10
26.504787286530291
20
24.57261515804943
30
0
10
25.977364559781222
20
24.757541657288581
30
0
10
25.47474711663941
20
24.99348052673945
30
0
10
25.004634172081776
20
25.283220185509421
30
0
10
24.573815510770082
20
25.626068281187671
30
0
10
24.187812727221964
20
26.018689411101978
30
0
10
23.850520116311245
20
26.45594087938828
30
0
10
23.563335958830763
20
26.931142476973239
30
0
10
23.324291889931263
20
27.436345708507584
30
0
10
23.127186515352825
20
27.962603532241381
30
0
10
22.960708696780138
20
28.500239079234685
30
0
10
22.807588424371762
20
29.039116918967416
30
0
10
22.647562341357922
20
29.569272663745906
30
0
10
22.460310437792469
20
30.08153952783023
30
0
10
22.228406051009785
20
30.568176976958835
30
0
10
21.940254254163495
20
31.023496372095511
30
0
10
21.593052084411699
20
31.444493938888847
30
0
10
21.190663961212248
20
31.829662935617446
30
0
10
20.741477561802807
20
32.177798687958138
30
0
10
20.256267071314518
20
32.486806323237666
30
0
10
19.746053430042185
20
32.752507251991545
30
0
10
19.219965866372831
20
32.967446340173019
30
0
10
18.685205683999754
20
33.123340295734209
30
0
10
18.14701000025531
20
33.213527507649502
30
0
10
17.608615902769394
20
33.235414659226855
30
0
10
17.07122325538981
20
33.192931079962548
30
0
10
16.533961099896498
20
33.09896259787287
30
0
10
15.994819604649617
20
32.972471415713763
30
0
10
15.45157743624037
20
32.835638572220546
30
0
10
14.902732334361385
20
32.710994841501993
30
0
10
14.348426843949454
20
32.618564201783194
30
0
10
13.791385824153732
20
32.57298081580106
30
0
10
13.236256958308397
20
32.584088766694464
30
0
10
12.688939677055584
20
32.657566954926992
30
0
10
12.155918362426114
20
32.795544539319017
30
0
10
11.643593872496398
20
32.9972203127287
30
0
10
11.157615545511421
20
33.259480141133302
30
0
10
10.701977860351681
20
33.576790081913373
30
0
10
10.278115570566849
20
33.941088217136397
30
0
10
9.8840025103265443
20
34.341678683168823
30
0
10
9.5132413777897575
20
34.765120565918622
30
0
10
9.1541776848976806
20
35.195130343044148
30
0
10
8.7923528157173489
20
35.614363243719971
30
0
10
8.4129319851229365
20
36.006180099839511
30
0
10
8.0031435035161707
20
36.356421519215672
30
0
10
7.5547086560904084
20
36.655174589874221
30
0
10
7.0662885539696942
20
36.898555159703221
30
0
10
6.5420263670653807
20
37.086758552645158
30
0
10
5.9900746050082398
20
37.222095819627697
30
0
10
5.4211280371635535
20
37.307035455128201
30
0
10
4.8469543789284817
20
37.342242747980954
30
0
10
4.2789258716235228
20
37.324620286048933
30
0
10
3.726990351927761
20
37.24952993959721
30
0
10
3.1986416858973161
20
37.11301615165543
30
0
10
2.6978918971582471
20
36.914026451695079
30
0
10
2.2242389135898217
20
36.656638489422932
30
0
10
1.771645936835706
20
36.352269803869987
30
0
10
1.3305642716364638
20
36.017425757056984
30
0
10
0.88994278771116031
20
35.671466238472796
30
0
10
0.43924501055313897
20
35.334363110146498
30
0
10
-0.029543324242265911
20
35.024467164677318
30
0
10
-0.51988518420269436
20
34.756255675022636
30
0
10
-1.0315386486597315
20
34.540612041736352
30
0
10
-1.5614241364585721
20
34.385123713157007
30
0
10
-2.1044838767606402
20
34.294373208433441
30
0
10
-2.6545445144419095
20
34.27023205194785
30
0
10
-3.2051784897911118
20
34.312153133582875
30
0
10
-3.7504858075269172
20
34.416705646126587
30
0
10
-4.2858766776247812
20
34.57710822791433
30
0
10
-4.8088516950067737
20
34.782765605419883
30
0
10
-5.3197881734335182
20
35.018796875551907
30
0
10
-5.8227099123173707
20
35.265585993090227
30
0
10
-6.3237707607070597
20
35.501406872525237
30
0
10
-6.8297552097901173
20
35.705025026711212
30
0
10
-7.3465716349393109
20
35.858310493079557
30
0
10
-7.8777510739222576
20
35.948840119255109
30
0
10
-8.4229368355985628
20
35.972520980552957
30
0
10
-8.9784233913197138
20
35.931216693295262
30
0
10
-9.537703042040178
20
35.830354431958774
30
0
10
-10.092009656942917
20
35.676539233050207
30
0
10
-10.630863490427721
20
35.475165229219073
30
0
10
-11.142615652078296
20
35.228028300935897
30
0
10
-11.616291843564767
20
34.93493745554639
30
0
10
-12.043437207627717
20
34.595327141871529
30
0
10
-12.419958499977941
20
34.209867717262533
30
0
10
-12.747972915874
20
33.782080088958068
30
0
10
-13.03763927653007
20
33.31993931077853
30
0
10
-13.304394084667733
20
32.834639976968766
30
0
10
-13.566207426617707
20
32.339373326998633
30
0
10
-13.840828138923262
20
31.848098994435013
30
0
10
-14.143041556207812
20
31.374321567501092
30
0
10
-14.481899694129897
20
30.929858177359236
30
0
10
-14.861608224968277
20
30.524749703149592
30
0
10
-15.282439904614293
20
30.16718020233796
30
0
10
-15.74163810794774
20
29.863393195209898
30
0
10
-16.234324411980708
20
29.617609334102944
30
0
10
-16.754404419002785
20
29.431943133114132
30
0
10
-17.295092780116612
20
29.305660138173096
30
0
10
-17.849438285214859
20
29.23443210292152
30
0
10
-18.410848128155234
20
29.20959636298846
30
0
10
-18.973614393640471
20
29.217405069617524
30
0
10
-19.53343444096291
20
29.238301447136294
30
0
10
-20.087093295880418
20
29.249934732910869
30
0
10
-20.632152055480706
20
29.230146756493212
30
0
10
-21.166634169133683
20
29.159971820166064
30
0
10
-21.688712449059157
20
29.026624607058821
30
0
10
-22.19639629923952
20
28.826511123774008
30
0
10
-22.687058551856421
20
28.562841042820711
30
0
10
-23.156961558734885
20
28.243219254453994
30
0
10
-23.600783571262337
20
27.877245266393711
30
0
10
-24.011144856854738
20
27.47410936056589
30
0
10
-24.378134074979592
20
27.040190186000498
30
0
10
-24.691648021535634
20
26.579776911488345
30
0
10
-24.943732769690321
20
26.095791780577965
30
0
10
-25.130921613614952
20
25.590512067623902
30
0
10
-25.256580789411881
20
25.066293140548574
30
0
10
-25.333234588675783
20
24.52628860870583
30
0
10
-25.379538210033456
20
23.97444665152047
30
0
10
-25.41727350468603
20
23.415508973301222
30
0
10
-25.468332736131423
20
22.855009231689426
30
0
10
-25.551715790534445
20
22.299270744541989
30
0
10
-25.68049855594214
20
21.755407211892326
30
0
10
-25.862607098636143
20
21.230880832245077
30
0
10
-26.101619349582347
20
20.733057174307699
30
0
10
-26.397556474905667
20
20.268761198124466
30
0
10
-26.747678507408512
20
19.843832894856074
30
0
10
-27.14727798811132
20
19.462682784117369
30
0
10
-27.589857462967341
20
19.12739975876163
30
0
10
-28.067306229163577
20
18.836857080853214
30
0
10
-28.570078035569058
20
18.585822548543863
30
0
10
-29.087366688238674
20
18.364058495356524
30
0
10
-29.607287072011886
20
18.155448959346479
30
0
10
-30.117811287609211
20
17.940883150665059
30
0
10
-30.607698746488889
20
17.701110564533028
30
0
10
-31.067429735577935
20
17.419609109518188
30
0
10
-31.49013477891517
20
17.085442001693714
30
0
10
-31.872533567740689
20
16.696135613058946
30
0
10
-32.213531556249031
20
16.255690690774397
30
0
10
-32.512807420461215
20
15.772574886260173
30
0
10
-32.769403972650515
20
15.257722336355071
30
0
10
-32.980317516055713
20
14.722530389024799
30
0
10
-33.139088020848199
20
14.176857535492434
30
0
10
-33.238230312929346
20
13.628731469743901
30
0
10
-33.271666702102266
20
13.084056947598135
30
0
10
-33.237156445930239
20
12.546324398989306
30
0
10
-33.138732768555528
20
12.01631638801266
30
0
10
-32.989119868156841
20
11.491819791849009
30
0
10
-32.806965985946576
20
10.968853699012705
30
0
10
-32.614098458041461
20
10.442890394898644
30
0
10
-32.432767603650802
20
9.91008074154424
30
0
10
-32.282902607554661
20
9.3684734273369479
30
0
10
-32.179342290354491
20
8.8192486978197522
30
0
10
-32.132362623468239
20
8.2659997889484202
30
0
10
-32.148228056167881
20
7.7140002069284748
30
0
10
-32.229733886008191
20
7.16947625396842
30
0
10
-32.376752366802307
20
6.6388774725261612
30
0
10
-32.586776940724739
20
6.1281477688247712
30
0
10
-32.854721517411868
20
5.6418381940894609
30
0
10
-33.17271831554487
20
5.182218342031967
30
0
10
-33.529918272549978
20
4.7483911685589781
30
0
10
-33.912285404938274
20
4.3353993750130391
30
0
10
-34.302407167479664
20
3.9333544094073063
30
0
10
-34.681522468913158
20
3.5296898838598558
30
0
10
-35.03153263494378
20
3.1113915464221611
30
0
10
-35.337020834929923
20
2.6672377316539588
30
0
10
-35.587263099530368
20
2.1900312578695411
30
0
10
-35.778256602428449
20
1.6788465752181401
30
0
10
-35.910628676745667
20
1.1377837399819737
30
0
10
-35.987529882533849
20
0.57470903088915526
30
0
10
-36.012533099405893
20
6.0230483200094179e-07
30
0
10
-35.987530032880947
20
-0.57470783677029358
30
0
10
-35.910628961678725
20
-1.1377825756131241
30
0
10
-35.77825699630494
20
-1.6788454562613007
30
0
10
-35.587263571047011
20
-2.1900301965494275
30
0
10
-35.337021351584752
20
-2.6672367380094073
30
0
10
-35.031533169006543
20
-3.1113906328156622
30
0
10
-34.681522998614355
20
-3.5296890669203558
30
0
10
-34.302407673886606
20
-3.9333537069587363
30
0
10
-33.91228587114589
20
-4.3353988034611248
30
0
10
-33.529918682983052
20
-4.7483907390711719
30
0
10
-33.172718655693451
20
-5.1822180553651709
30
0
10
-32.854721775544739
20
-5.6418380364669041
30
0
10
-32.586777110279343
20
-6.1281477121097705
30
0
10
-32.37675244728581
20
-6.6388774757215652
30
0
10
-32.229733883207224
20
-7.1694762671457957
30
0
10
-32.148227981343183
20
-7.7140001771109876
30
0
10
-32.132362491641523
20
-8.2659996681709984
30
0
10
-32.179342118650723
20
-8.8192484488307255
30
0
10
-32.282902413412621
20
-9.368473027101933
30
0
10
-32.432767403390052
20
-9.9100801822494375
30
0
10
-32.614098264609169
20
-10.442889683137233
30
0
10
-32.806965809029549
20
-10.968852851321316
30
0
10
-32.989119716527014
20
-11.491818830090262
30
0
10
-33.138732652260316
20
-12.016315336169621
30
0
10
-33.237156378094198
20
-12.546323281107396
30
0
10
-33.271666703029972
20
-13.084055786250001
30
0
10
-33.238230408229029
20
-13.628730287320682
30
0
10
-33.139088234143223
20
-14.176856355894603
30
0
10
-32.980317864400327
20
-14.722529236990528
30
0
10
-32.769404462609401
20
-15.257721235889427
30
0
10
-32.512808043500492
20
-15.772573856530611
30
0
10
-32.213532290137429
20
-16.255689742964154
30
0
10
-31.872534382683298
20
-16.696134751045879
30
0
10
-31.490135641343745
20
-17.085441223913268
30
0
10
-31.067430611717359
20
-17.419608411921192
30
0
10
-30.607699605977746
20
-17.70110994713416
30
0
10
-30.117812103795856
20
-17.940882619801428
30
0
10
-29.607287820350304
20
-18.15544852360096
30
0
10
-29.087367346612261
20
-18.364058162840958
30
0
10
-28.570078585206687
20
-18.585822323125441
30
0
10
-28.067306656502211
20
-18.836856957321459
30
0
10
-27.5898577628938
20
-19.127399719758916
30
0
10
-27.147278166074976
20
-19.462682801269995
30
0
10
-26.74767857963413
20
-19.843832930510843
30
0
10
-26.39755646698714
20
-20.268761209023278
30
0
10
-26.101619293354442
20
-20.733057116634232
30
0
10
-25.862607027330874
20
-21.230880668290915
30
0
10
-25.680498500355387
20
-21.755406914591685
30
0
10
-25.551715775966443
20
-22.299270299944723
30
0
10
-25.468332780669691
20
-22.855008639294855
30
0
10
-25.417273617477303
20
-23.415508244398339
30
0
10
-25.379538393200924
20
-23.974445805156257
30
0
10
-25.333234841339841
20
-24.52628766842091
30
0
10
-25.256581110995544
20
-25.066292132339711
30
0
10
-25.13092200632725
20
-25.590511018796491
30
0
10
-24.943733242899057
20
-26.095790720011909
30
0
10
-24.691648589528327
20
-26.579775870054387
30
0
10
-24.378134749617164
20
-27.040189195140663
30
0
10
-24.011145643656121
20
-27.474108449815571
30
0
10
-23.600784466461757
20
-27.877244460352447
30
0
10
-23.156962546740125
20
-28.243218567161392
30
0
10
-22.687059607808955
20
-28.56284047545121
30
0
10
-22.196397394342007
20
-28.826510667751887
30
0
10
-21.68871355328054
20
-29.026624247301527
30
0
10
-21.166635253265071
20
-29.159971539237421
30
0
10
-20.632153091779845
20
-29.230146542057852
30
0
10
-20.087094257423107
20
-29.249934579917479
30
0
10
-19.533435301835269
20
-29.238301353441209
30
0
10
-18.973615130339429
20
-29.217405033635
30
0
10
-18.410848721960221
20
-29.209596380616176
30
0
10
-17.849438725854483
20
-29.234432163883227
30
0
10
-17.295093069978943
20
-29.305660224532545
30
0
10
-16.754404574605765
20
-29.431943221167359
30
0
10
-16.234324463460823
20
-29.617609396051634
30
0
10
-15.741638096280839
20
-29.863393201945705
30
0
10
-15.282439876704771
20
-30.167180126780984
30
0
10
-14.861608226512717
20
-30.524749524367977
30
0
10
-14.481899764270896
20
-30.929857883152906
30
0
10
-14.143041723732772
20
-31.374321155416268
30
0
10
-13.840828420559674
20
-31.848098471370957
30
0
10
-13.566207826129551
20
-32.339372706988655
30
0
10
-13.304394596247235
20
-32.83463927827713
30
0
10
-13.037639889798738
20
-33.319938554553218
30
0
10
-12.747973619730779
20
-33.782079298713455
30
0
10
-12.419959285335002
20
-34.209866918841534
30
0
10
-12.043438071296656
20
-34.595326365467201
30
0
10
-11.616292786041642
20
-34.934936735171803
30
0
10
-11.142616671409865
20
-35.228027670139319
30
0
10
-10.630864579642459
20
-35.475164717227472
30
0
10
-10.092010802594826
20
-35.676538860805273
30
0
10
-9.5377042241746484
20
-35.830354205944445
30
0
10
-8.978424586749739
20
-35.931216604473242
30
0
10
-8.4229380215046081
20
-35.972521009375399
30
0
10
-7.8777522290046118
20
-35.948840239728398
30
0
10
-7.3465727396066089
20
-35.858310677394442
30
0
10
-6.8297562437157824
20
-35.705025252314911
30
0
10
-6.3237717013490622
20
-35.501407123852239
30
0
10
-5.8227107368736855
20
-35.265586257642497
30
0
10
-5.3197888610775959
20
-35.01879714232161
30
0
10
-4.808852230304816
20
-34.782765863045853
30
0
10
-4.2858770553731187
20
-34.577108462831035
30
0
10
-3.7504860372028492
20
-34.416705842919299
30
0
10
-3.2051785961262724
20
-34.312153277314806
30
0
10
-2.6545445362743898
20
-34.270232129480732
30
0
10
-2.1044838633628533
20
-34.294373209841567
30
0
10
-1.5614241416937085
20
-34.385123632779305
30
0
10
-1.0315387227873083
20
-34.540611879037833
30
0
10
-0.51988536794374529
20
-34.756255434779128
30
0
10
-0.02954364489363891
20
-35.024466856356526
30
0
10
0.43924454051616774
20
-35.334362746855476
30
0
10
0.8899421705577969
20
-35.671465834562909
30
0
10
1.3305635201011243
20
-36.017425326850493
30
0
10
1.7716450690016181
20
-36.352269362464071
30
0
10
2.2242379491627147
20
-36.65663805378351
30
0
10
2.6978908549517948
20
-36.914026041734502
30
0
10
3.1986405811048932
20
-37.113015793660381
30
0
10
3.7269891979304468
20
-37.249529664842484
30
0
10
4.2789246838507928
20
-37.324620124387891
30
0
10
4.8469531756363819
20
-37.342242723277735
30
0
10
5.4211268391528797
20
-37.307035581044246
30
0
10
5.9900734331454526
20
-37.222096093969668
30
0
10
6.5420252388571143
20
-37.086758957725316
30
0
10
7.0662874823124717
20
-36.898555668382784
30
0
10
7.5547076498705481
20
-36.655175169744616
30
0
10
8.0031425693201701
20
-36.356422136904321
30
0
10
8.4129311323464968
20
-36.006180726475982
30
0
10
8.7923520586224306
20
-35.614363855915137
30
0
10
9.1541770392314277
20
-35.195130920104809
30
0
10
9.5132408581009091
20
-34.765121089316651
30
0
10
9.8840021260934705
20
-34.341679136247038
30
0
10
10.27811532102557
20
-33.941088585385913
30
0
10
10.701977730574567
20
-33.57679035510791
30
0
10
11.15761550682986
20
-33.259480315687512
30
0
10
11.643593884086677
20
-32.997220392437619
30
0
10
12.155918375238507
20
-32.795544535155969
30
0
10
12.688939639581001
20
-32.657566883628505
30
0
10
13.23625682441474
20
-32.584088648213829
30
0
10
13.791385558582927
20
-32.572980671063583
30
0
10
14.348426425615294
20
-32.618564050540101
30
0
10
14.902731757197703
20
-32.710994700800541
30
0
10
15.451576708157111
20
-32.835638454247857
30
0
10
15.994818743105997
20
-32.972471328374951
30
0
10
16.533960127553414
20
-33.098962547606149
30
0
10
17.071222197150611
20
-33.192931074252726
30
0
10
17.608614783920689
20
-33.235414708612986
30
0
10
18.147008845368461
20
-33.213527629965114
30
0
10
18.685204518018999
20
-33.123340514106829
30
0
10
19.219964715535717
20
-32.967446675599092
30
0
10
19.74605232073278
20
-32.752507718846857
30
0
10
20.25626602809206
20
-32.486806925542346
30
0
10
20.741476602838059
20
-32.177799415221642
30
0
10
21.190663095304153
20
-31.829663764560618
30
0
10
21.593051312303256
20
-31.444494839473784
30
0
10
21.940253570790663
20
-31.023497311100648
30
0
10
22.228405448815881
20
-30.568177921217131
30
0
10
22.460309913618659
20
-30.081540447145379
30
0
10
22.64756189872028
20
-29.56927353095039
30
0
10
22.807588069239028
20
-29.039117708752819
30
0
10
22.960708434906728
20
-28.500239768757933
30
0
10
23.127186348622001
20
-27.96260410243039
30
0
10
23.324291811743912
20
-27.436346146418529
30
0
10
23.563335951390989
20
-26.931142779335111
30
0
10
23.850520151971288
20
-26.455941054585544
30
0
10
24.187812770230867
20
-26.018689479205719
30
0
10
24.573815520781757
20
-25.626068272173018
30
0
10
25.004634108847256
20
-25.28322013561715
30
0
10
25.474746946130232
20
-24.993480472961494
30
0
10
25.977364258298973
20
-24.757541633081846
30
0
10
26.504786842845853
20
-24.57261519003389
30
0
10
27.048764893064185
20
-24.43159850091952
30
0
10
27.600856886820701
20
-24.322230882782488
30
0
10
28.152788124133558
20
-24.226277491724769
30
0
10
28.696766900811269
20
-24.12254441363174
30
0
10
29.225800667138525
20
-23.989864763671136
30
0
10
29.73401287457861
20
-23.810098238108338
30
0
10
30.216958046939986
20
-23.571118803623264
30
0
10
30.671941854259831
20
-23.269824872381193
30
0
10
31.097061867078359
20
-22.909902196749471
30
0
10
31.490243259392628
20
-22.499566582636486
30
0
10
31.848276425446464
20
-22.049314219238475
30
0
10
32.165853664573
20
-21.569668891450469
30
0
10
32.434606418515074
20
-21.068930543085159
30
0
10
32.645544030756575
20
-20.553395188551569
30
0
10
32.79149395544713
20
-20.027574927741988
30
0
10
32.869538714559518
20
-19.494418039773194
30
0
10
32.883460692388141
20
-18.955528542287922
30
0
10
32.846166166960245
20
-18.411387184067731
30
0
10
32.776723548713946
20
-17.861977233455292
30
0
10
32.69742455890124
20
-17.307408075631038
30
0
10
32.630833574653899
20
-16.748540787020289
30
0
10
32.596849980745176
20
-16.187610207355505
30
0
10
32.609742947097523
20
-15.628855955263832
30
0
10
32.678816814735796
20
-15.077929240466473
30
0
10
32.80910271609374
20
-14.541290782645881
30
0
10
33.002040343748448
20
-14.025611999409694
30
0
10
33.256163807796476
20
-13.537174935313317
30
0
10
33.567785517121692
20
-13.081272465292059
30
0
10
33.930984307882198
20
-12.661298731535293
30
0
10
34.337592453591682
20
-12.277837927969948
30
0
10
34.777184475677331
20
-11.927756966124971
30
0
10
35.237061790911653
20
-11.603288631153145
30
0
10
35.702248305518935
20
-11.291140187933573
30
0
10
36.157005602047413
20
-10.975119204103992
30
0
10
36.586336320786152
20
-10.638732894371213
30
0
10
36.977493641267237
20
-10.267799474282889
30
0
10
37.321484316822364
20
-9.8530493992431722
30
0
10
37.614585425127991
20
-9.3927451104986428
30
0
10
37.856558140937935
20
-8.891027498154525
30
0
10
38.048848685697116
20
-8.3562459821427453
30
0
10
38.192794123405257
20
-7.7992947726971051
30
0
10
38.287826037168145
20
-7.231946662057279
30
0
10
38.329675259887331
20
-6.6651878254848507
30
0
10
38.312689237906746
20
-6.1084267877949641
30
0
10
38.232150760908311
20
-5.5687028945701194
30
0
10
38.086593753243292
20
-5.0498961780243965
30
0
10
37.880126007653978
20
-4.551933546898594
30
0
10
37.624733533953822
20
-4.0700047308588871
30
0
10
37.337829386502086
20
-3.5963386235252477
30
0
10
37.039822556959116
20
-3.121968293361848
30
0
10
36.751676860878398
20
-2.638502613818102
30
0
10
36.492480282074411
20
-2.1398894036180032
30
0
10
36.276992764082856
20
-1.6241979528273527
30
0
10
36.116012799638739
20
-1.0928064819825574
30
0
10
36.036614054271567
20
-0.6582179414260465
30
0
10
36.006657116009535
20
-0.32942572421093469
30
0
10
36.000000007899857
20
-0.10980857385721583
30
0
10
36
20
0
30
0
0
CIRCLE
5
103
100
AcDbEntity
8
0
100
AcDbCircle
10
1.5000000000000002
20
0
30
0
40
16
210
0
220
0
230
1
0
CIRCLE
5
104
100
AcDbEntity
8
0
100
AcDbCircle
10
26.5
20
0
30
0
40
3.9500000000000002
210
0
220
0
230
1
0
LINE
5
105
100
AcDbEntity
8
0
100
AcDbLine
10
1.5000000000000002
20
0
30
0
11
26.5
21
0
31
0
6
DASHED
0
CIRCLE
5
106
100
AcDbEntity
8
0
100
AcDbCircle
10
14.000000000000004
20
21.650635094610962
30
0
40
3.9500000000000002
210
0
220
0
230
1
0
LINE
5
107
100
AcDbEntity
8
0
100
AcDbLine
10
1.5000000000000002
20
0
30
0
11
14.000000000000004
21
21.650635094610962
31
0
6
DASHED
0
CIRCLE
5
108
100
AcDbEntity
8
0
100
AcDbCircle
10
-10.999999999999996
20
21.650635094610969
30
0
40
3.9500000000000002
210
0
220
0
230
1
0
LINE
5
109
100
AcDbEntity
8
0
100
AcDbLine
10
1.5000000000000002
20
0
30
0
11
-10.999999999999996
21
21.650635094610969
31
0
6
DASHED
0
CIRCLE
5
110
100
AcDbEntity
8
0
100
AcDbCircle
10
-23.5
20
3.061616997868383e-15
30
0
40
3.9500000000000002
210
0
220
0
230
1
0
LINE
5
111
100
AcDbEntity
8
0
100
AcDbLine
10
1.5000000000000002
20
0
30
0
11
-23.5
21
3.061616997868383e-15
31
0
6
DASHED
0
CIRCLE
5
112
100
AcDbEntity
8
0
100
AcDbCircle
10
-11.000000000000011
20
-21.650635094610958
30
0
40
3.9500000000000002
210
0
220
0
230
1
0
LINE
5
113
100
AcDbEntity
8
0
100
AcDbLine
10
1.5000000000000002
20
0
30
0
11
-11.000000000000011
21
-21.650635094610958
31
0
6
DASHED
0
CIRCLE
5
114
100
AcDbEntity
8
0
100
AcDbCircle
10
14.000000000000004
20
-21.650635094610962
30
0
40
3.9500000000000002
210
0
220
0
230
1
0
LINE
5
115
100
AcDbEntity
8
0
100
AcDbLine
10
1.5000000000000002
20
0
30
0
11
14.000000000000004
21
-21.650635094610962
31
0
6
DASHED
0
ENDSEC
0
SECTION
2
OBJECTS
0
DICTIONARY
5
C
100
AcDbDictionary
3
ACAD_GROUP
350
D
3
ACAD_MLINESTYLE
350
17
0
DICTIONARY
5
D
100
AcDbDictionary
0
DICTIONARY
5
1A
330
C
100
AcDbDictionary
0
DICTIONARY
5
17
100
AcDbDictionary
0
ENDSEC
0
EOF
