0
SECTION
2
HEADER
9
$INSUNITS
70
4
9
$ACADVER
1
AC1014
9
$HANDSEED
5
FFFF
0
ENDSEC
0
SECTION
2
TABLES
0
TABLE
2
VPORT
5
8
100
AcDbSymbolTable
0
ENDTAB
0
TABLE
2
LTYPE
5
5
100
AcDbSymbolTable
0
LTYPE
5
14
100
AcDbSymbolTableRecord
100
AcDbLinetypeTableRecord
2
BYBLOCK
70
0
0
LTYPE
5
15
100
AcDbSymbolTableRecord
100
AcDbLinetypeTableRecord
2
BYLAYER
70
0
0
LTYPE
5
16
100
AcDbSymbolTableRecord
100
AcDbLinetypeTableRecord
2
DASHED
70
0
3
Dashed __ __ __ __ __ __ __ __ __ __ __ __ __ _
72
65
73
2
40
0.75
49
0.5
74
0
49
-0.25
74
0
0
ENDTAB
0
TABLE
2
LAYER
5
2
100
AcDbSymbolTable
70
2
0
LAYER
5
50
100
AcDbSymbolTableRecord
100
AcDbLayerTableRecord
2
0
70
0
62
7
6
CONTINUOUS
0
ENDTAB
0
TABLE
2
STYLE
5
3
100
AcDbSymbolTable
70
1
0
STYLE
5
11
100
AcDbSymbolTableRecord
100
AcDbTextStyleTableRecord
2
STANDARD
70
0
0
ENDTAB
0
TABLE
2
VIEW
5
6
100
AcDbSymbolTable
70
0
0
ENDTAB
0
TABLE
2
UCS
5
7
100
AcDbSymbolTable
70
0
0
ENDTAB
0
TABLE
2
APPID
5
9
100
AcDbSymbolTable
70
2
0
APPID
5
12
100
AcDbSymbolTableRecord
100
AcDbRegAppTableRecord
2
ACAD
70
0
0
ENDTAB
0
TABLE
2
DIMSTYLE
5
A
100
AcDbSymbolTable
70
1
0
ENDTAB
0
TABLE
2
BLOCK_RECORD
5
1
100
AcDbSymbolTable
70
1
0
BLOCK_RECORD
5
1F
100
AcDbSymbolTableRecord
100
AcDbBlockTableRecord
2
*MODEL_SPACE
0
BLOCK_RECORD
5
1B
100
AcDbSymbolTableRecord
100
AcDbBlockTableRecord
2
*PAPER_SPACE
0
ENDTAB
0
ENDSEC
0
SECTION
2
BLOCKS
0
BLOCK
5
20
100
AcDbEntity
100
AcDbBlockBegin
2
*MODEL_SPACE
0
ENDBLK
5
21
100
AcDbEntity
100
AcDbBlockEnd
0
BLOCK
5
1C
100
AcDbEntity
100
AcDbBlockBegin
2
*PAPER_SPACE
0
ENDBLK
5
1D
100
AcDbEntity
100
AcDbBlockEnd
0
ENDSEC
0
SECTION
2
ENTITIES
0
CIRCLE
5
100
100
AcDbEntity
8
0
100
AcDbCircle
10
40
20
0
30
0
40
4.0000000000000036
210
0
220
0
230
1
0
LINE
5
101
100
AcDbEntity
8
0
100
AcDbLine
10
0
20
0
30
0
11
40
21
0
31
0
6
DASHED
0
CIRCLE
5
102
100
AcDbEntity
8
0
100
AcDbCircle
10
36.955181300451471
20
15.307337294603592
30
0
40
4.0000000000000036
210
0
220
0
230
1
0
LINE
5
103
100
AcDbEntity
8
0
100
AcDbLine
10
0
20
0
30
0
11
36.955181300451471
21
15.307337294603592
31
0
6
DASHED
0
CIRCLE
5
104
100
AcDbEntity
8
0
100
AcDbCircle
10
28.284271247461902
20
28.284271247461902
30
0
40
3.9999999999999991
210
0
220
0
230
1
0
LINE
5
105
100
AcDbEntity
8
0
100
AcDbLine
10
0
20
0
30
0
11
28.284271247461902
21
28.284271247461902
31
0
6
DASHED
0
CIRCLE
5
106
100
AcDbEntity
8
0
100
AcDbCircle
10
15.307337294603593
20
36.955181300451471
30
0
40
3.9999999999999991
210
0
220
0
230
1
0
LINE
5
107
100
AcDbEntity
8
0
100
AcDbLine
10
0
20
0
30
0
11
15.307337294603593
21
36.955181300451471
31
0
6
DASHED
0
CIRCLE
5
108
100
AcDbEntity
8
0
100
AcDbCircle
10
2.4492935982947065e-15
20
40
30
0
40
4
210
0
220
0
230
1
0
LINE
5
109
100
AcDbEntity
8
0
100
AcDbLine
10
0
20
0
30
0
11
2.4492935982947065e-15
21
40
31
0
6
DASHED
0
CIRCLE
5
110
100
AcDbEntity
8
0
100
AcDbCircle
10
-15.307337294603588
20
36.955181300451471
30
0
40
3.9999999999999991
210
0
220
0
230
1
0
LINE
5
111
100
AcDbEntity
8
0
100
AcDbLine
10
0
20
0
30
0
11
-15.307337294603588
21
36.955181300451471
31
0
6
DASHED
0
CIRCLE
5
112
100
AcDbEntity
8
0
100
AcDbCircle
10
-28.284271247461898
20
28.284271247461902
30
0
40
3.9999999999999991
210
0
220
0
230
1
0
LINE
5
113
100
AcDbEntity
8
0
100
AcDbLine
10
0
20
0
30
0
11
-28.284271247461898
21
28.284271247461902
31
0
6
DASHED
0
CIRCLE
5
114
100
AcDbEntity
8
0
100
AcDbCircle
10
-36.955181300451471
20
15.307337294603595
30
0
40
3.9999999999999991
210
0
220
0
230
1
0
LINE
5
115
100
AcDbEntity
8
0
100
AcDbLine
10
0
20
0
30
0
11
-36.955181300451471
21
15.307337294603595
31
0
6
DASHED
0
CIRCLE
5
116
100
AcDbEntity
8
0
100
AcDbCircle
10
-40
20
4.898587196589413e-15
30
0
40
3.9999999999999991
210
0
220
0
230
1
0
LINE
5
117
100
AcDbEntity
8
0
100
AcDbLine
10
0
20
0
30
0
11
-40
21
4.898587196589413e-15
31
0
6
DASHED
0
CIRCLE
5
118
100
AcDbEntity
8
0
100
AcDbCircle
10
-36.955181300451471
20
-15.307337294603585
30
0
40
3.9999999999999991
210
0
220
0
230
1
0
LINE
5
119
100
AcDbEntity
8
0
100
AcDbLine
10
0
20
0
30
0
11
-36.955181300451471
21
-15.307337294603585
31
0
6
DASHED
0
CIRCLE
5
120
100
AcDbEntity
8
0
100
AcDbCircle
10
-28.284271247461909
20
-28.284271247461898
30
0
40
3.9999999999999991
210
0
220
0
230
1
0
LINE
5
121
100
AcDbEntity
8
0
100
AcDbLine
10
0
20
0
30
0
11
-28.284271247461909
21
-28.284271247461898
31
0
6
DASHED
0
CIRCLE
5
122
100
AcDbEntity
8
0
100
AcDbCircle
10
-15.307337294603613
20
-36.955181300451457
30
0
40
4.0000000000000018
210
0
220
0
230
1
0
LINE
5
123
100
AcDbEntity
8
0
100
AcDbLine
10
0
20
0
30
0
11
-15.307337294603613
21
-36.955181300451457
31
0
6
DASHED
0
CIRCLE
5
124
100
AcDbEntity
8
0
100
AcDbCircle
10
-7.3478807948841184e-15
20
-40
30
0
40
4
210
0
220
0
230
1
0
LINE
5
125
100
AcDbEntity
8
0
100
AcDbLine
10
0
20
0
30
0
11
-7.3478807948841184e-15
21
-40
31
0
6
DASHED
0
CIRCLE
5
126
100
AcDbEntity
8
0
100
AcDbCircle
10
15.307337294603601
20
-36.955181300451464
30
0
40
4.0000000000000018
210
0
220
0
230
1
0
LINE
5
127
100
AcDbEntity
8
0
100
AcDbLine
10
0
20
0
30
0
11
15.307337294603601
21
-36.955181300451464
31
0
6
DASHED
0
CIRCLE
5
128
100
AcDbEntity
8
0
100
AcDbCircle
10
28.284271247461895
20
-28.284271247461909
30
0
40
3.9999999999999991
210
0
220
0
230
1
0
LINE
5
129
100
AcDbEntity
8
0
100
AcDbLine
10
0
20
0
30
0
11
28.284271247461895
21
-28.284271247461909
31
0
6
DASHED
0
CIRCLE
5
130
100
AcDbEntity
8
0
100
AcDbCircle
10
36.955181300451457
20
-15.307337294603617
30
0
40
4.0000000000000036
210
0
220
0
230
1
0
LINE
5
131
100
AcDbEntity
8
0
100
AcDbLine
10
0
20
0
30
0
11
36.955181300451457
21
-15.307337294603617
31
0
6
DASHED
0
ENDSEC
0
SECTION
2
OBJECTS
0
DICTIONARY
5
C
100
AcDbDictionary
3
ACAD_GROUP
350
D
3
ACAD_MLINESTYLE
350
17
0
DICTIONARY
5
D
100
AcDbDictionary
0
DICTIONARY
5
1A
330
C
100
AcDbDictionary
0
DICTIONARY
5
17
100
AcDbDictionary
0
ENDSEC
0
EOF
